<svg width="100" height="100" viewBox="0 0 100 100" fill="none" xmlns="http://www.w3.org/2000/svg">
<g clip-path="url(#clip0_4433_23763)">
<path d="M58.3809 50.0312C58.3809 22.6562 58.4434 0.20625 58.5246 0.14375C58.5871 0.0625 62.7309 0 67.6996 0C74.9059 0 77.1371 0.0625 78.5934 0.3125C89.4059 2.175 97.6246 10.3125 99.6746 21.1C99.9621 22.6125 100.006 26.1562 100.006 49.9125C100.006 75.2875 100.037 78.2688 99.2371 81.0125C99.0996 81.4875 98.9371 81.95 98.7371 82.525C97.1592 87.1317 94.3122 91.1991 90.5239 94.2587C86.7357 97.3182 82.1603 99.2456 77.3246 99.8187C75.3434 100.025 59.2684 100.106 58.7121 99.9C58.3996 99.775 58.3809 95.2 58.3809 50.0312ZM87.5996 51.7125C87.0567 50.1487 86.1387 48.7419 84.926 47.6153C83.7133 46.4886 82.2428 45.6765 80.6434 45.25C78.1497 44.6052 75.5038 44.9413 73.2505 46.1889C70.9971 47.4365 69.308 49.5006 68.5309 51.9562C68.0153 53.8665 67.9853 55.8752 68.4434 57.8C69.2065 60.2946 70.8963 62.4021 73.1656 63.6889C75.4348 64.9758 78.1108 65.3444 80.6434 64.7188C83.8309 63.8687 86.3184 61.5687 87.5809 58.2937C88.2684 56.5125 88.2871 53.6562 87.5996 51.7125ZM23.1934 20.7312C21.8934 20.9812 19.9059 21.975 18.8496 22.9062C16.6746 24.7875 15.5996 27.4625 15.7621 30.6062C15.8434 32.2437 15.9496 32.6813 16.6121 34.0062C17.5809 36.0125 19.0496 37.4813 21.0621 38.475C22.4496 39.1625 22.7996 39.2438 24.6059 39.3063C26.2371 39.3688 26.8184 39.3063 27.9184 38.9313C32.4184 37.4188 35.1246 33.0563 34.3559 28.5812C33.4684 23.2563 28.4184 19.6938 23.1934 20.7312Z" fill="#3F3F3F"/>
<path d="M21.4061 0.331247C16.547 1.18822 12.0346 3.41794 8.40203 6.75704C4.76945 10.0961 2.16838 14.4051 0.906059 19.175C-0.000190806 22.675 -0.0626908 24.725 0.0310592 51.875C0.0935592 76.8125 0.118559 77.3875 0.531059 79.3125C2.83106 89.6875 10.2061 97.0875 20.6811 99.5312C22.0561 99.8438 23.7873 99.9062 34.9936 99.9688C46.5936 100.044 47.7936 100.025 48.0998 99.7188C48.4123 99.4062 48.4311 95.4062 48.4311 50.0938C48.4311 16.5063 48.3686 0.681247 48.2248 0.393747C48.0186 0.0187474 47.6623 -2.57231e-06 35.5373 0.0187474C25.6748 0.0437474 22.7123 0.106247 21.4123 0.331247H21.4061ZM40.1561 91.9875L31.7186 91.8875C23.9561 91.8062 23.1248 91.7625 21.5748 91.3688C18.3486 90.5724 15.4145 88.877 13.1133 86.4796C10.8121 84.0822 9.23838 81.0812 8.57481 77.825C8.11231 75.7312 8.11231 24.2 8.54981 22.1562C9.15098 19.3054 10.4435 16.6459 12.3136 14.4118C14.1838 12.1776 16.5742 10.4373 19.2748 9.34375C22.0123 8.24375 23.2748 8.11875 32.1373 8.09375L40.1498 8.075V91.9875H40.1561Z" fill="#3F3F3F"/>
</g>
<defs>
<clipPath id="clip0_4433_23763">
<rect width="100" height="100" fill="none"/>
</clipPath>
</defs>
</svg>
