<svg width="100" height="82" viewBox="0 0 100 82" fill="none" xmlns="http://www.w3.org/2000/svg">
<g clip-path="url(#clip0_4433_23788)">
<path d="M99.1129 59.0688C97.1566 61.5375 92.3629 63.2938 92.3629 63.2938L56.7691 76.0813V66.65L82.9691 57.3187C85.9441 56.2562 86.4004 54.7438 83.9816 53.9563C81.5691 53.1625 77.2004 53.3938 74.2316 54.4563L56.7691 60.6062V50.8187L57.7691 50.4812C57.7691 50.4812 62.8191 48.6937 69.9129 47.9062C77.0066 47.125 85.6941 48.0125 92.5129 50.5938C100.2 53.0312 101.063 56.6063 99.1129 59.0688ZM60.1566 43.0187V18.8937C60.1566 16.0625 59.6379 13.4563 56.9816 12.7188C54.9441 12.0625 53.6816 13.9562 53.6816 16.7812V77.1813L37.3941 72.0125V0C44.3191 1.2875 54.4066 4.325 59.8316 6.15625C73.6254 10.8875 78.3004 16.7812 78.3004 30.0625C78.3004 43.0062 70.3129 47.9125 60.1566 43.0125V43.0187ZM7.50036 65.675C-0.380894 63.4375 -1.69339 58.8125 1.90036 56.15C5.22536 53.6875 10.8754 51.8375 10.8754 51.8375L34.2316 43.525V52.9938L17.4191 59.0125C14.4566 60.075 14.0004 61.5812 16.4129 62.375C18.8254 63.1625 23.1941 62.9375 26.1629 61.875L34.2254 58.9437V67.4187L32.6191 67.6875C24.208 69.0495 15.5922 68.3569 7.50661 65.6687V65.675H7.50036Z" fill="#3F3F3F"/>
</g>
<defs>
<clipPath id="clip0_4433_23788">
<rect width="100" height="81.25" fill="none"/>
</clipPath>
</defs>
</svg>
