<svg width="100" height="100" viewBox="0 0 100 100" fill="none" xmlns="http://www.w3.org/2000/svg">
<g clip-path="url(#clip0_4433_23781)">
<path fill-rule="evenodd" clip-rule="evenodd" d="M20.1562 90.1875C11.5388 83.8097 5.19638 74.8339 2.0625 64.5813L21.0063 72.3875C21.6179 75.1831 23.0802 77.7207 25.1921 79.6518C27.3041 81.5829 29.9621 82.8127 32.8012 83.1723C35.6402 83.5319 38.521 83.0036 41.0477 81.6601C43.5744 80.3165 45.6232 78.2236 46.9125 75.6688C47.9625 73.6063 48.4875 71.3188 48.425 69L65.95 56.5C68.4827 56.5532 71.0006 56.1006 73.3563 55.1686C75.7119 54.2365 77.8579 52.8439 79.6686 51.0722C81.4793 49.3005 82.9183 47.1853 83.9014 44.8505C84.8845 42.5158 85.3918 40.0083 85.3938 37.475C85.3888 32.4335 83.3843 27.5999 79.82 24.0344C76.2557 20.469 71.4227 18.4629 66.3812 18.4563C61.3398 18.4629 56.5068 20.469 52.9425 24.0344C49.3782 27.5999 47.3737 32.4335 47.3688 37.475L47.375 37.725L35.125 55.5C32.2183 55.3681 29.3449 56.1625 26.9188 57.7688L0.01875 46.7125L0 46.675C0.852899 34.0117 6.48615 22.1456 15.7591 13.4795C25.0321 4.8135 37.2517 -0.00490614 49.9438 3.74865e-06C77.5875 3.74865e-06 100 22.3875 100 50C100 77.6125 77.5875 100 49.9375 100C39.2158 100.003 28.7765 96.563 20.1562 90.1875ZM38.4937 79.1C35.9312 80.2 33.0438 80.2625 30.4375 79.2688V79.2625C28.0146 78.2534 26.051 76.3833 24.925 74.0125L31.1125 76.575C32.071 76.9865 33.1017 77.2038 34.1447 77.2143C35.1878 77.2248 36.2226 77.0283 37.1892 76.6362C38.1558 76.244 39.0351 75.6641 39.776 74.9298C40.517 74.1956 41.1049 73.3217 41.5058 72.3587C41.9067 71.3956 42.1126 70.3627 42.1116 69.3195C42.1106 68.2764 41.9027 67.2439 41.4999 66.2816C41.0971 65.3194 40.5075 64.4466 39.7651 63.7138C39.0227 62.981 38.1424 62.4028 37.175 62.0125L30.7813 59.3625C33.3313 58.3875 36.1562 58.4375 38.675 59.4875C40.5684 60.3446 42.1718 61.7336 43.29 63.4855C44.4081 65.2374 44.9929 67.2766 44.973 69.3549C44.9531 71.4331 44.3295 73.4608 43.178 75.191C42.0266 76.9212 40.3969 78.2793 38.4875 79.1H38.4937ZM57.4375 46.4375C55.0632 44.0613 53.7281 40.8404 53.725 37.4813C53.73 34.1228 55.0663 30.9033 57.4411 28.5286C59.8158 26.1538 63.0353 24.8175 66.3938 24.8125C69.7522 24.8175 72.9716 26.1538 75.3464 28.5286C77.7212 30.9033 79.0575 34.1228 79.0625 37.4813C79.0608 40.8419 77.726 44.0645 75.3508 46.442C72.9757 48.8195 69.7544 50.1575 66.3938 50.1625C63.0328 50.1561 59.8117 48.8164 57.4375 46.4375ZM70.0625 28.6625C68.9033 28.1567 67.6549 27.8868 66.3903 27.8687C65.1256 27.8505 63.87 28.0843 62.6967 28.5566C61.5234 29.0289 60.4559 29.7301 59.5565 30.6193C58.6571 31.5086 57.9438 32.568 57.4583 33.7359C56.9727 34.9037 56.7246 36.1566 56.7284 37.4214C56.7322 38.6861 56.9879 39.9375 57.4804 41.1024C57.973 42.2673 58.6927 43.3224 59.5974 44.2062C60.5022 45.09 61.5739 45.7848 62.75 46.25C65.0751 47.1764 67.6714 47.1505 69.9775 46.1778C72.2837 45.205 74.1142 43.3637 75.0734 41.0519C76.0326 38.7401 76.0434 36.1437 75.1033 33.8241C74.1633 31.5044 72.348 29.648 70.05 28.6563L70.0625 28.6625Z" fill="#3F3F3F"/>
</g>
<defs>
<clipPath id="clip0_4433_23781">
<rect width="100" height="100" fill="none"/>
</clipPath>
</defs>
</svg>
