<svg width="100" height="100" viewBox="0 0 100 100" fill="none" xmlns="http://www.w3.org/2000/svg">
<g clip-path="url(#clip0_4433_23796)">
<path d="M45.012 99.7937C37.0899 98.977 29.478 96.2768 22.812 91.9187C17.1995 88.2625 15.937 86.7562 15.937 83.7562C15.937 77.725 22.5683 67.1562 33.9245 55.1125C40.3745 48.2687 49.362 40.25 50.3245 40.4687C52.212 40.8937 67.312 55.6125 72.962 62.5312C81.8995 73.4937 86.0121 82.4687 83.9246 86.4687C82.3371 89.5062 72.487 95.45 65.2558 97.7312C59.2933 99.6062 51.462 100.412 45.012 99.7937ZM8.34955 77.4812C3.68705 70.3312 1.32455 63.2937 0.187045 53.1062C-0.187955 49.7312 -0.0504546 47.8187 1.0433 40.9187C2.4058 32.3125 7.30579 22.3562 13.1995 16.2312C15.7058 13.625 15.9308 13.5625 18.987 14.5875C22.7058 15.8375 26.6745 18.575 32.8183 24.1375L36.4058 27.3812L34.4495 29.7875C25.3495 40.9562 15.7495 56.7875 12.1245 66.5812C10.1558 71.9062 9.36205 77.25 10.212 79.475C10.7808 80.975 10.2558 80.4125 8.33705 77.475H8.34955V77.4812ZM90.2308 78.7C90.6933 76.45 90.1121 72.325 88.7433 68.1562C85.787 59.1375 75.8995 42.3562 66.8183 30.95L63.962 27.3562L67.0495 24.5187C71.087 20.8125 73.8933 18.5937 76.9245 16.7062C79.3058 15.225 82.7183 13.9062 84.1808 13.9062C85.087 13.9062 88.2683 17.2062 90.8371 20.8062C94.9241 26.6308 97.7802 33.2277 99.2308 40.1937C100.187 44.7437 100.268 54.4812 99.3808 59.0187C98.5476 63.0827 97.2908 67.0481 95.6308 70.85C94.512 73.3062 91.7308 78.075 90.5058 79.625C89.8808 80.425 89.8808 80.4187 90.237 78.7H90.2308ZM45.8433 12.2C41.6558 10.075 35.1933 7.79372 31.6183 7.18122C30.0485 6.94739 28.4607 6.85743 26.8745 6.91247C23.937 7.06247 24.062 6.91247 28.787 4.67497C32.491 2.89614 36.4055 1.59409 40.437 0.799971C45.437 -0.262529 54.8495 -0.26253 59.7745 0.768721C65.0871 1.89372 71.3558 4.21872 74.887 6.39372L75.937 7.03747L73.5308 6.91247C68.7433 6.67497 61.7808 8.59997 54.2933 12.2437C52.0433 13.3437 50.0683 14.2187 49.9245 14.1937C48.5433 13.5687 47.1745 12.9062 45.837 12.1937H45.8433V12.2Z" fill="#3F3F3F"/>
</g>
<defs>
<clipPath id="clip0_4433_23796">
<rect width="100" height="100" fill="none"/>
</clipPath>
</defs>
</svg>
